<svg width="343" height="45" viewBox="0 0 343 45" fill="none" xmlns="http://www.w3.org/2000/svg">
<path d="M0.303955 44.0031V0.363647H8.20934V20.4148H8.74205L25.7674 0.363647H35.4201L18.5439 19.946L35.5692 44.0031H26.0657L13.0463 25.2944L8.20934 31.005V44.0031H0.303955Z" fill="#1F2937"/>
<path d="M56.4834 19.0084V25.3583H36.8371V19.0084H56.4834Z" fill="#1F2937"/>
<path d="M64.9374 0.363647H74.6114L87.5669 31.9852H88.0783L101.034 0.363647H110.708V44.0031H103.122V14.0223H102.717L90.6566 43.8752H84.9886L72.9281 13.9584H72.5232V44.0031H64.9374V0.363647Z" fill="#1F2937"/>
<path d="M128.394 44.6636C126.32 44.6636 124.452 44.2943 122.79 43.5556C121.142 42.8027 119.835 41.6947 118.869 40.2315C117.917 38.7683 117.441 36.9642 117.441 34.8192C117.441 32.9725 117.782 31.4454 118.464 30.2379C119.146 29.0304 120.076 28.0645 121.255 27.34C122.434 26.6155 123.763 26.0686 125.24 25.6992C126.732 25.3157 128.273 25.0387 129.864 24.8682C131.782 24.6693 133.337 24.4918 134.53 24.3355C135.724 24.165 136.59 23.9093 137.13 23.5684C137.684 23.2133 137.961 22.6664 137.961 21.9277V21.7998C137.961 20.1946 137.485 18.9516 136.533 18.0709C135.582 17.1901 134.211 16.7497 132.421 16.7497C130.532 16.7497 129.033 17.1617 127.925 17.9856C126.831 18.8096 126.092 19.7826 125.709 20.9049L118.507 19.8821C119.075 17.8933 120.012 16.2312 121.319 14.8959C122.626 13.5464 124.224 12.5378 126.114 11.8701C128.003 11.1883 130.091 10.8473 132.378 10.8473C133.955 10.8473 135.525 11.032 137.087 11.4014C138.65 11.7707 140.078 12.3815 141.37 13.2339C142.663 14.072 143.7 15.2155 144.481 16.6645C145.277 18.1135 145.675 19.9247 145.675 22.0981V44.0031H138.259V39.507H138.004C137.535 40.4162 136.874 41.2685 136.022 42.064C135.184 42.8453 134.126 43.4775 132.847 43.9605C131.583 44.4293 130.098 44.6636 128.394 44.6636ZM130.397 38.9956C131.945 38.9956 133.287 38.6902 134.424 38.0794C135.56 37.4543 136.434 36.6304 137.045 35.6076C137.67 34.5848 137.982 33.4697 137.982 32.2622V28.4054C137.741 28.6043 137.329 28.7889 136.746 28.9594C136.178 29.1299 135.539 29.279 134.829 29.4069C134.118 29.5347 133.415 29.6484 132.719 29.7478C132.023 29.8473 131.419 29.9325 130.908 30.0035C129.757 30.1598 128.727 30.4155 127.818 30.7706C126.909 31.1258 126.192 31.623 125.666 32.2622C125.141 32.8872 124.878 33.697 124.878 34.6914C124.878 36.1119 125.396 37.1844 126.433 37.9089C127.47 38.6334 128.791 38.9956 130.397 38.9956Z" fill="#1F2937"/>
<path d="M153.431 44.0031V11.2735H160.91V16.7284H161.251C161.848 14.8391 162.87 13.383 164.319 12.3602C165.783 11.3232 167.452 10.8047 169.327 10.8047C169.753 10.8047 170.229 10.826 170.755 10.8686C171.294 10.8971 171.742 10.9468 172.097 11.0178V18.1135C171.77 17.9998 171.252 17.9004 170.541 17.8152C169.845 17.7157 169.171 17.666 168.517 17.666C167.111 17.666 165.847 17.9714 164.724 18.5823C163.616 19.1789 162.743 20.0099 162.103 21.0753C161.464 22.1408 161.145 23.3695 161.145 24.7617V44.0031H153.431Z" fill="#1F2937"/>
<path d="M184.253 33.7325L184.232 24.4207H185.468L197.23 11.2735H206.244L191.775 27.3826H190.177L184.253 33.7325ZM177.222 44.0031V0.363647H184.935V44.0031H177.222ZM197.763 44.0031L187.109 29.1086L192.308 23.675L206.989 44.0031H197.763Z" fill="#1F2937"/>
<path d="M224.526 44.6423C221.245 44.6423 218.411 43.9605 216.024 42.5967C213.652 41.2188 211.826 39.2726 210.548 36.7583C209.269 34.2297 208.63 31.2536 208.63 27.8301C208.63 24.4634 209.269 21.5086 210.548 18.9658C211.841 16.4088 213.645 14.42 215.96 12.9995C218.276 11.5647 220.996 10.8473 224.121 10.8473C226.138 10.8473 228.042 11.1741 229.832 11.8275C231.636 12.4668 233.227 13.4612 234.605 14.8107C235.997 16.1602 237.091 17.8791 237.886 19.9673C238.682 22.0413 239.08 24.5131 239.08 27.3826V29.7478H212.253V24.5486H231.686C231.672 23.0712 231.352 21.7572 230.727 20.6066C230.102 19.4417 229.228 18.5254 228.106 17.8578C226.998 17.1901 225.705 16.8563 224.228 16.8563C222.651 16.8563 221.266 17.2398 220.073 18.0069C218.879 18.7598 217.949 19.7542 217.281 20.9901C216.628 22.2118 216.294 23.5542 216.28 25.0174V29.556C216.28 31.4596 216.628 33.0932 217.324 34.457C218.02 35.8065 218.993 36.8435 220.243 37.568C221.493 38.2783 222.956 38.6334 224.633 38.6334C225.755 38.6334 226.771 38.4771 227.68 38.1646C228.589 37.8379 229.377 37.362 230.045 36.737C230.713 36.1119 231.217 35.3377 231.558 34.4143L238.76 35.2241C238.306 37.1276 237.439 38.7897 236.16 40.2102C234.896 41.6166 233.277 42.7104 231.302 43.4917C229.328 44.2588 227.069 44.6423 224.526 44.6423Z" fill="#1F2937"/>
<path d="M261.949 11.2735V17.2398H243.134V11.2735H261.949ZM247.779 3.43205H255.492V34.1586C255.492 35.1957 255.649 35.9912 255.961 36.5452C256.288 37.085 256.714 37.4543 257.24 37.6532C257.765 37.8521 258.348 37.9515 258.987 37.9515C259.47 37.9515 259.91 37.916 260.308 37.845C260.72 37.774 261.033 37.71 261.246 37.6532L262.546 43.6835C262.134 43.8255 261.544 43.9818 260.777 44.1522C260.024 44.3227 259.101 44.4222 258.007 44.4506C256.075 44.5074 254.335 44.2162 252.786 43.5769C251.238 42.9235 250.009 41.9149 249.1 40.5511C248.205 39.1874 247.765 37.4827 247.779 35.4371V3.43205Z" fill="#1F2937"/>
<path d="M282.363 30.9113L285.771 41.216H285.905L289.306 30.9113H291.914L287.298 44.0031H284.371L279.762 30.9113H282.363Z" fill="#1F2937"/>
<path d="M296.828 44.1949C295.843 44.1949 294.993 43.9903 294.277 43.5812C293.566 43.1678 293.018 42.584 292.634 41.8296C292.251 41.0711 292.059 40.1782 292.059 39.1512C292.059 38.1412 292.251 37.2547 292.634 36.4919C293.022 35.7248 293.563 35.1282 294.258 34.702C294.953 34.2716 295.769 34.0564 296.706 34.0564C297.312 34.0564 297.883 34.1544 298.42 34.3504C298.961 34.5422 299.438 34.8405 299.852 35.2454C300.269 35.6502 300.597 36.1659 300.836 36.7924C301.075 37.4146 301.194 38.1561 301.194 39.0169V39.7265H293.146V38.1667H298.976C298.972 37.7235 298.876 37.3293 298.688 36.9841C298.501 36.6347 298.239 36.3598 297.902 36.1595C297.569 35.9592 297.182 35.859 296.738 35.859C296.265 35.859 295.85 35.9741 295.492 36.2042C295.134 36.4301 294.855 36.7284 294.654 37.0992C294.458 37.4657 294.358 37.8684 294.354 38.3074V39.669C294.354 40.24 294.458 40.7301 294.667 41.1393C294.876 41.5441 295.168 41.8552 295.543 42.0726C295.918 42.2856 296.357 42.3922 296.86 42.3922C297.197 42.3922 297.501 42.3453 297.774 42.2515C298.047 42.1535 298.283 42.0108 298.484 41.8232C298.684 41.6357 298.835 41.4035 298.937 41.1265L301.098 41.3694C300.962 41.9404 300.702 42.4391 300.318 42.8652C299.939 43.2871 299.453 43.6153 298.861 43.8497C298.268 44.0798 297.591 44.1949 296.828 44.1949Z" fill="#1F2937"/>
<path d="M305.466 38.2498V44.0031H303.152V34.1842H305.364V35.8527H305.479C305.704 35.3029 306.065 34.8661 306.559 34.5422C307.058 34.2183 307.673 34.0564 308.406 34.0564C309.084 34.0564 309.674 34.2013 310.177 34.4911C310.684 34.7808 311.076 35.2006 311.353 35.7504C311.635 36.3001 311.773 36.9671 311.769 37.7512V44.0031H309.455V38.1092C309.455 37.4529 309.284 36.9394 308.943 36.5686C308.607 36.1979 308.14 36.0125 307.543 36.0125C307.138 36.0125 306.778 36.102 306.463 36.281C306.152 36.4557 305.907 36.7093 305.728 37.0417C305.553 37.3741 305.466 37.7768 305.466 38.2498Z" fill="#1F2937"/>
<path d="M317.765 44.1757C316.994 44.1757 316.303 43.9775 315.694 43.5812C315.084 43.1849 314.603 42.6095 314.249 41.8552C313.895 41.1009 313.719 40.1846 313.719 39.1064C313.719 38.0155 313.897 37.0949 314.255 36.3449C314.618 35.5906 315.106 35.0216 315.719 34.6381C316.333 34.2503 317.017 34.0564 317.771 34.0564C318.347 34.0564 318.82 34.1544 319.19 34.3504C319.561 34.5422 319.855 34.7745 320.073 35.0472C320.29 35.3157 320.458 35.5693 320.578 35.8079H320.674V30.9113H322.994V44.0031H320.718V42.4561H320.578C320.458 42.6948 320.286 42.9483 320.06 43.2168C319.834 43.481 319.536 43.7069 319.165 43.8944C318.794 44.0819 318.328 44.1757 317.765 44.1757ZM318.411 42.2771C318.901 42.2771 319.318 42.145 319.664 41.8808C320.009 41.6123 320.271 41.2394 320.45 40.7621C320.629 40.2848 320.718 39.7286 320.718 39.0937C320.718 38.4587 320.629 37.9068 320.45 37.438C320.275 36.9692 320.015 36.6048 319.67 36.3449C319.329 36.0849 318.909 35.9549 318.411 35.9549C317.895 35.9549 317.465 36.0892 317.119 36.3577C316.774 36.6262 316.514 36.9969 316.339 37.47C316.165 37.943 316.077 38.4842 316.077 39.0937C316.077 39.7073 316.165 40.255 316.339 40.7365C316.518 41.2138 316.781 41.591 317.126 41.868C317.475 42.1407 317.903 42.2771 318.411 42.2771Z" fill="#1F2937"/>
<path d="M329.743 44.1949C328.784 44.1949 327.953 43.9839 327.25 43.562C326.547 43.1401 326.001 42.5499 325.613 41.7913C325.23 41.0327 325.038 40.1463 325.038 39.132C325.038 38.1177 325.23 37.2292 325.613 36.4663C326.001 35.7035 326.547 35.1111 327.25 34.6892C327.953 34.2673 328.784 34.0564 329.743 34.0564C330.702 34.0564 331.533 34.2673 332.236 34.6892C332.939 35.1111 333.483 35.7035 333.866 36.4663C334.254 37.2292 334.448 38.1177 334.448 39.132C334.448 40.1463 334.254 41.0327 333.866 41.7913C333.483 42.5499 332.939 43.1401 332.236 43.562C331.533 43.9839 330.702 44.1949 329.743 44.1949ZM329.756 42.341C330.276 42.341 330.71 42.1983 331.06 41.9127C331.409 41.623 331.669 41.2351 331.84 40.7493C332.014 40.2635 332.102 39.7223 332.102 39.1256C332.102 38.5247 332.014 37.9814 331.84 37.4955C331.669 37.0054 331.409 36.6155 331.06 36.3257C330.71 36.0359 330.276 35.891 329.756 35.891C329.223 35.891 328.78 36.0359 328.426 36.3257C328.077 36.6155 327.815 37.0054 327.64 37.4955C327.469 37.9814 327.384 38.5247 327.384 39.1256C327.384 39.7223 327.469 40.2635 327.64 40.7493C327.815 41.2351 328.077 41.623 328.426 41.9127C328.78 42.1983 329.223 42.341 329.756 42.341Z" fill="#1F2937"/>
<path d="M336.412 44.0031V34.1842H338.656V35.8207H338.758C338.937 35.2539 339.244 34.8171 339.678 34.5102C340.117 34.1991 340.618 34.0436 341.181 34.0436C341.309 34.0436 341.451 34.05 341.609 34.0628C341.771 34.0713 341.905 34.0862 342.012 34.1075V36.2362C341.914 36.2021 341.758 36.1723 341.545 36.1467C341.336 36.1169 341.134 36.102 340.938 36.102C340.516 36.102 340.137 36.1936 339.8 36.3768C339.467 36.5558 339.205 36.8051 339.014 37.1248C338.822 37.4444 338.726 37.813 338.726 38.2307V44.0031H336.412Z" fill="#1F2937"/>
</svg>
